<svg xmlns="http://www.w3.org/2000/svg" width="1200" height="1040" viewBox="0 0 1200 1040" role="img" aria-labelledby="title desc">
	<title id="title">EU AI Act Ontology Project Architecture</title>
	<desc id="desc">Architecture diagram showing the client, host, memory, server, and generated artifacts in the ontology generation pipeline.</desc>
	<defs>
		<marker id="arrow" viewBox="0 0 10 10" refX="9" refY="5" markerWidth="8" markerHeight="8" orient="auto-start-reverse">
			<path d="M 0 0 L 10 5 L 0 10 z" fill="#4b5563"/>
		</marker>
		<style>
			text { font-family: Helvetica, Arial, sans-serif; fill: #1f2937; }
			.title { font-size: 28px; font-weight: 700; }
			.subtitle { font-size: 14px; fill: #4b5563; }
			.group-label { font-size: 20px; font-weight: 700; }
			.node-title { font-size: 18px; font-weight: 700; }
			.node-body { font-size: 14px; fill: #374151; }
			.center { text-anchor: middle; }
			.group { stroke-width: 2; rx: 20; ry: 20; }
			.node { stroke-width: 1.6; rx: 16; ry: 16; }
			.edge { stroke: #4b5563; stroke-width: 2.4; fill: none; marker-end: url(#arrow); }
			.edge-bidir { stroke: #4b5563; stroke-width: 2.4; fill: none; marker-start: url(#arrow); marker-end: url(#arrow); }
		</style>
	</defs>

	<rect width="1200" height="1040" fill="#fffdf8"/>
	<text x="70" y="64" class="title">Memory-Based MCP Architecture for EU AI Act Ontology Generation</text>
	<text x="70" y="92" class="subtitle">Client goals are planned in the host, executed by the server, and grounded in declarative and procedural memory to produce ontology artifacts.</text>

	<rect x="70" y="140" width="1060" height="120" fill="#f5efe3" stroke="#bb8a3b" class="group"/>
	<text x="92" y="172" class="group-label">User Entry</text>
	<rect x="110" y="190" width="220" height="48" fill="#fffaf0" stroke="#bb8a3b" class="node"/>
	<text x="220" y="220" class="node-title center">Researcher / Developer</text>
	<rect x="420" y="190" width="220" height="48" fill="#fffaf0" stroke="#bb8a3b" class="node"/>
	<text x="530" y="212" class="node-title center">CLI</text>
	<text x="530" y="230" class="node-body center">src/main.py</text>
	<rect x="730" y="190" width="280" height="48" fill="#fffaf0" stroke="#bb8a3b" class="node"/>
	<text x="870" y="220" class="node-title center">PrototypeClient</text>

	<rect x="70" y="300" width="500" height="300" fill="#eef5fb" stroke="#4f81bd" class="group"/>
	<text x="92" y="332" class="group-label">Host</text>
	<rect x="110" y="360" width="180" height="100" fill="#ffffff" stroke="#4f81bd" class="node"/>
	<text x="200" y="390" class="node-title center">LLMPlanner</text>
	<text x="200" y="414" class="node-body center">maps user goals</text>
	<text x="200" y="434" class="node-body center">to pipeline actions</text>
	<rect x="340" y="360" width="180" height="100" fill="#ffffff" stroke="#4f81bd" class="node"/>
	<text x="430" y="390" class="node-title center">MCPClient</text>
	<text x="430" y="414" class="node-body center">dispatches the planned</text>
	<text x="430" y="434" class="node-body center">action to the server</text>
	<rect x="110" y="490" width="410" height="80" fill="#ffffff" stroke="#4f81bd" class="node"/>
	<text x="315" y="520" class="node-title center">Agents</text>
	<text x="315" y="544" class="node-body center">Domain expert and retriever agents</text>
	<text x="315" y="562" class="node-body center">support ontology tasks</text>

	<rect x="630" y="300" width="500" height="300" fill="#edf7ef" stroke="#5b8a62" class="group"/>
	<text x="652" y="332" class="group-label">Memory</text>
	<rect x="670" y="360" width="420" height="100" fill="#ffffff" stroke="#5b8a62" class="node"/>
	<text x="880" y="390" class="node-title center">Source Knowledge</text>
	<text x="880" y="414" class="node-body center">EU AI Act content, prompt templates,</text>
	<text x="880" y="432" class="node-body center">and reused ontologies</text>
	<rect x="670" y="490" width="170" height="80" fill="#ffffff" stroke="#5b8a62" class="node"/>
	<text x="755" y="525" class="node-title center">MemoryGenerator</text>
	<rect x="860" y="490" width="110" height="80" fill="#ffffff" stroke="#5b8a62" class="node"/>
	<text x="915" y="522" class="node-title center">Declarative</text>
	<text x="915" y="544" class="node-body center">memory</text>
	<rect x="980" y="490" width="110" height="80" fill="#ffffff" stroke="#5b8a62" class="node"/>
	<text x="1035" y="522" class="node-title center">Procedural</text>
	<text x="1035" y="544" class="node-body center">memory</text>

	<rect x="70" y="640" width="1060" height="150" fill="#eef4ff" stroke="#4267a6" class="group"/>
	<text x="92" y="672" class="group-label">Server</text>
	<rect x="290" y="690" width="620" height="74" fill="#ffffff" stroke="#4267a6" class="node"/>
	<text x="600" y="720" class="node-title center">OntologyGenerator</text>
	<text x="600" y="744" class="node-body center">executes generation, extraction, mapping, borrowing,</text>
	<text x="600" y="762" class="node-body center">and validation tasks</text>

	<rect x="70" y="830" width="1060" height="170" fill="#fff6e5" stroke="#c3912e" class="group"/>
	<text x="92" y="862" class="group-label">Generated Artifacts and Evaluation</text>
	<rect x="100" y="905" width="200" height="68" fill="#ffffff" stroke="#c3912e" class="node"/>
	<text x="200" y="934" class="node-title center">Competency Questions</text>
	<text x="200" y="956" class="node-body center">competency_questions.json</text>
	<rect x="315" y="905" width="170" height="68" fill="#ffffff" stroke="#c3912e" class="node"/>
	<text x="400" y="934" class="node-title center">Concepts</text>
	<text x="400" y="956" class="node-body center">concepts.json</text>
	<rect x="500" y="905" width="170" height="68" fill="#ffffff" stroke="#c3912e" class="node"/>
	<text x="585" y="934" class="node-title center">Mappings</text>
	<text x="585" y="956" class="node-body center">mappings.json</text>
	<rect x="685" y="905" width="170" height="68" fill="#ffffff" stroke="#c3912e" class="node"/>
	<text x="770" y="934" class="node-title center">Ontology</text>
	<text x="770" y="956" class="node-body center">ontology/*.ttl</text>
	<rect x="870" y="905" width="230" height="68" fill="#ffffff" stroke="#c3912e" class="node"/>
	<text x="985" y="934" class="node-title center">Evaluation</text>
	<text x="985" y="956" class="node-body center">SPARQL validation and metrics</text>

	<path d="M 330 214 L 420 214" class="edge"/>
	<path d="M 640 214 L 730 214" class="edge"/>
	<path d="M 870 238 L 870 280 L 200 280 L 200 360" class="edge"/>
	<path d="M 290 405 L 340 405" class="edge"/>
	<path d="M 520 410 L 560 410 L 560 620 L 600 620 L 600 690" class="edge"/>
	<path d="M 880 460 L 880 475 L 755 475 L 755 490" class="edge"/>
	<path d="M 840 530 L 860 530" class="edge"/>
	<path d="M 755 570 L 755 590 L 1035 590 L 1035 570" class="edge"/>
	<path d="M 915 570 L 915 620 L 680 620 L 680 690" class="edge"/>
	<path d="M 1035 570 L 1035 620 L 760 620 L 760 690" class="edge"/>
	<path d="M 315 570 L 315 620 L 430 620 L 430 690" class="edge-bidir"/>
	<path d="M 600 764 L 600 880" class="edge"/>
	<path d="M 600 880 L 200 880 L 200 905" class="edge"/>
	<path d="M 600 880 L 400 880 L 400 905" class="edge"/>
	<path d="M 600 880 L 585 880 L 585 905" class="edge"/>
	<path d="M 600 880 L 770 880 L 770 905" class="edge"/>
	<path d="M 600 880 L 985 880 L 985 905" class="edge"/>
	<path d="M 770 973 L 770 988 L 985 988 L 985 973" class="edge"/>
</svg>